<svg width="180" height="180" viewBox="0 0 180 180" fill="none" xmlns="http://www.w3.org/2000/svg">
<circle cx="90" cy="90" r="90" fill="#061B0B"/>
<path d="M60.592 144.32C59.7387 144.32 59.056 144.021 58.544 143.424C57.9467 142.912 57.648 142.229 57.648 141.376V137.024C57.648 136.171 57.9467 135.445 58.544 134.848C59.056 134.336 59.7387 134.08 60.592 134.08H62.384C65.456 134.08 67.7173 133.483 69.168 132.288C70.6187 131.179 71.5573 129.685 71.984 127.808C72.496 125.931 72.752 123.797 72.752 121.408V56.384C72.752 55.5307 73.008 54.848 73.52 54.336C74.1173 53.7387 74.8427 53.44 75.696 53.44H81.968C82.8213 53.44 83.504 53.7387 84.016 54.336C84.6133 54.848 84.912 55.5307 84.912 56.384V121.536C84.912 126.059 84.1867 130.027 82.736 133.44C81.3707 136.853 79.1093 139.499 75.952 141.376C72.7947 143.339 68.4853 144.32 63.024 144.32H60.592ZM74.672 41.024C73.8187 41.024 73.0933 40.768 72.496 40.256C71.984 39.6587 71.728 38.9333 71.728 38.08V31.168C71.728 30.3147 71.984 29.632 72.496 29.12C73.0933 28.5227 73.8187 28.224 74.672 28.224H82.864C83.7173 28.224 84.4427 28.5227 85.04 29.12C85.6373 29.632 85.936 30.3147 85.936 31.168V38.08C85.936 38.9333 85.6373 39.6587 85.04 40.256C84.4427 40.768 83.7173 41.024 82.864 41.024H74.672Z" fill="#00FFC2"/>
<path d="M105.792 146.28C101.099 146.28 97.0453 145.469 93.632 143.848C90.2187 142.141 87.4027 139.88 85.184 137.064C83.0507 134.163 81.4293 130.877 80.32 127.208C79.296 123.539 78.6987 119.656 78.528 115.56C78.4427 114.195 78.4 112.915 78.4 111.72C78.4 110.525 78.4427 109.245 78.528 107.88C78.6987 103.869 79.296 100.029 80.32 96.36C81.4293 92.6907 83.0507 89.4053 85.184 86.504C87.4027 83.6027 90.2187 81.3413 93.632 79.72C97.0453 78.0133 101.099 77.16 105.792 77.16C110.827 77.16 115.008 78.056 118.336 79.848C121.664 81.64 124.395 83.8587 126.528 86.504V57.064C126.528 56.2107 126.784 55.528 127.296 55.016C127.893 54.4187 128.619 54.12 129.472 54.12H135.616C136.469 54.12 137.152 54.4187 137.664 55.016C138.261 55.528 138.56 56.2107 138.56 57.064V142.056C138.56 142.909 138.261 143.635 137.664 144.232C137.152 144.744 136.469 145 135.616 145H129.856C128.917 145 128.192 144.744 127.68 144.232C127.168 143.635 126.912 142.909 126.912 142.056V136.68C124.779 139.411 122.005 141.715 118.592 143.592C115.179 145.384 110.912 146.28 105.792 146.28ZM108.48 135.912C112.747 135.912 116.16 134.931 118.72 132.968C121.28 131.005 123.2 128.531 124.48 125.544C125.76 122.472 126.443 119.357 126.528 116.2C126.613 114.835 126.656 113.213 126.656 111.336C126.656 109.373 126.613 107.709 126.528 106.344C126.443 103.357 125.717 100.413 124.352 97.512C123.072 94.6107 121.109 92.2213 118.464 90.344C115.904 88.4667 112.576 87.528 108.48 87.528C104.128 87.528 100.672 88.5093 98.112 90.472C95.552 92.3493 93.7173 94.8667 92.608 98.024C91.4987 101.096 90.8587 104.424 90.688 108.008C90.6027 110.483 90.6027 112.957 90.688 115.432C90.8587 119.016 91.4987 122.387 92.608 125.544C93.7173 128.616 95.552 131.133 98.112 133.096C100.672 134.973 104.128 135.912 108.48 135.912Z" fill="#00FFC2"/>
</svg>
